<?xml version="1.0" standalone="no"?><!DOCTYPE svg PUBLIC "-//W3C//DTD SVG 1.1//EN" "http://www.w3.org/Graphics/SVG/1.1/DTD/svg11.dtd"><svg t="1514273837532" class="icon" style="" viewBox="0 0 1024 1024" version="1.1" xmlns="http://www.w3.org/2000/svg" p-id="10781" xmlns:xlink="http://www.w3.org/1999/xlink" width="200" height="200"><defs><style type="text/css"></style></defs><path d="M828.019978 196.517769C743.47749 112.38358 631.108237 66.051345 511.546164 66.051345c-119.55798 0-231.953839 46.332235-316.500421 130.466424C110.468462 280.679587 63.876308 392.630309 63.876308 511.713474c0 119.111818 46.592155 231.027747 131.134643 315.188542 84.547605 84.133166 196.946534 130.467447 316.506561 130.467447 119.56105 0 231.959979-46.334281 316.474838-130.467447 84.61105-84.189448 131.198088-196.140169 131.168412-315.222311C959.190437 392.594493 912.632051 280.679587 828.019978 196.517769L828.019978 196.517769zM735.389278 543.68463 543.525506 543.68463l0 191.863772c0 17.682731-14.325263 31.974225-31.979342 31.974225-17.645892 0-31.973202-14.291494-31.973202-31.974225L479.572962 543.68463 287.711236 543.68463c-17.647939 0-31.972179-14.323217-31.972179-31.971156 0-17.653055 14.32424-31.980365 31.972179-31.980365l191.862749 0L479.573985 287.872407c0-17.647939 14.326287-31.974225 31.973202-31.974225 17.654079 0 31.979342 14.326287 31.979342 31.974225l0 191.860702 191.862749 0c17.681708 0 31.973202 14.32731 31.973202 31.980365C767.36248 529.361413 753.070986 543.68463 735.389278 543.68463L735.389278 543.68463zM735.389278 543.68463" p-id="10782" fill="#FF527B"></path></svg>