<?xml version="1.0" standalone="no"?><!DOCTYPE svg PUBLIC "-//W3C//DTD SVG 1.1//EN" "http://www.w3.org/Graphics/SVG/1.1/DTD/svg11.dtd"><svg t="1514274329592" class="icon" style="" viewBox="0 0 1024 1024" version="1.1" xmlns="http://www.w3.org/2000/svg" p-id="17023" xmlns:xlink="http://www.w3.org/1999/xlink" width="200" height="200"><defs><style type="text/css"></style></defs><path d="M441.27 629.76L276.115 464.603a32.914 32.914 0 0 0-47.03 0.074 33.646 33.646 0 0 0-0.074 47.03l188.782 188.855a32.914 32.914 0 0 0 47.104-0.146l330.02-330.02a33.646 33.646 0 0 0 0-47.178 33.646 33.646 0 0 0-47.177 0L441.271 629.687zM512 1024A512 512 0 1 1 512 0a512 512 0 0 1 0 1024z" p-id="17024" fill="#5570EC"></path></svg>