<?xml version="1.0" standalone="no"?><!DOCTYPE svg PUBLIC "-//W3C//DTD SVG 1.1//EN" "http://www.w3.org/Graphics/SVG/1.1/DTD/svg11.dtd"><svg t="1514354622668" class="icon" style="" viewBox="0 0 1024 1024" version="1.1" xmlns="http://www.w3.org/2000/svg" p-id="8222" xmlns:xlink="http://www.w3.org/1999/xlink" width="200" height="200"><defs><style type="text/css"></style></defs><path d="M123.8 511.5c0 213.8 173.7 387.6 387.6 387.6 213.8 0 387.6-173.7 387.6-387.6 0-213.8-173.7-387.6-387.6-387.6-213.7 0-387.6 173.7-387.6 387.6z m-59.6 0c0-246.9 200.6-447.3 447.3-447.3 246.9 0 447.3 200.6 447.3 447.3 0 246.9-200.6 447.3-447.3 447.3-246.9 0-447.3-200.6-447.3-447.3z m208.7 0C272.9 379.8 380 273 511.4 273 643.2 272.9 750 380 750 511.5 750 643.2 643 750 511.5 750c-131.8 0-238.6-107-238.6-238.5z" p-id="8223" fill="#F85B80"></path></svg>