<?xml version="1.0" standalone="no"?><!DOCTYPE svg PUBLIC "-//W3C//DTD SVG 1.1//EN" "http://www.w3.org/Graphics/SVG/1.1/DTD/svg11.dtd"><svg t="1514218601025" class="icon" style="" viewBox="0 0 1024 1024" version="1.1" xmlns="http://www.w3.org/2000/svg" p-id="13554" xmlns:xlink="http://www.w3.org/1999/xlink" width="200" height="200"><defs><style type="text/css"></style></defs><path d="M512 10.44898c-277.002449 0-501.55102 224.548571-501.55102 501.55102s224.548571 501.55102 501.55102 501.55102c277.002449 0 501.55102-224.548571 501.55102-501.55102S789.002449 10.44898 512 10.44898zM451.960163 259.322776l120.832 0c19.163429 0 34.398041 17.470694 34.398041 37.908898 0 20.291918-15.067429 37.908898-33.645714 37.908898l-121.584327 0c-19.163429 0-34.398041-17.470694-34.398041-37.908898C417.562122 276.772571 432.796735 259.322776 451.960163 259.322776zM643.197388 561.277388 381.534041 561.277388c-13.876245 0-25.49551-11.535673-25.49551-25.39102 0-13.834449 11.619265-25.39102 25.49551-25.39102l260.931918 0c13.834449 0 25.202939 10.657959 26.226939 25.39102C668.692898 549.741714 657.094531 561.277388 643.197388 561.277388zM668.692898 639.770122c0 13.834449-11.619265 25.370122-25.49551 25.370122L381.534041 665.140245c-13.876245 0-25.49551-11.535673-25.49551-25.370122 0-13.834449 11.619265-25.39102 25.49551-25.39102l260.931918 0C656.321306 614.4 667.668898 625.037061 668.692898 639.770122zM643.197388 465.522939 381.534041 465.522939c-13.876245 0-25.49551-11.535673-25.49551-25.370122 0-13.834449 11.619265-25.39102 25.49551-25.39102l261.684245 0c13.876245 0 25.49551 11.535673 25.49551 25.39102C668.692898 453.987265 657.094531 465.522939 643.197388 465.522939zM781.374694 748.063347c0 51.889633-29.152653 80.624327-81.084082 80.624327L323.709388 828.687673c-50.196898 0-81.084082-32.078367-81.084082-80.624327L242.625306 353.948735c0-47.480163 27.271837-77.677714 77.385143-77.677714l43.739429 0c13.813551 0 21.044245 9.048816 21.044245 23.175837 0 14.942041-7.06351 26.853878-21.044245 26.853878l-43.739429 0c-16.509388 0-27.146449 10.553469-27.146449 26.916571l0 398.54498c0 14.377796 17.219918 26.916571 36.028082 26.916571l375.097469 0c16.509388 0 27.146449-10.553469 27.146449-26.916571L731.136 353.217306c0-16.363102-10.616163-26.916571-27.146449-26.916571L669.152653 326.300735c-13.980735 0-28.46302-13.061224-28.46302-26.853878 0-13.855347 13.897143-23.175837 28.46302-23.175837l34.836898 0c47.626449 0 77.385143 31.681306 77.385143 77.677714L781.374694 748.063347z" p-id="13555" fill="#FF527B"></path></svg>