<?xml version="1.0" standalone="no"?><!DOCTYPE svg PUBLIC "-//W3C//DTD SVG 1.1//EN" "http://www.w3.org/Graphics/SVG/1.1/DTD/svg11.dtd"><svg t="1514276837986" class="icon" style="" viewBox="0 0 1024 1024" version="1.1" xmlns="http://www.w3.org/2000/svg" p-id="20317" xmlns:xlink="http://www.w3.org/1999/xlink" width="200" height="200"><defs><style type="text/css"></style></defs><path d="M446.656 885.587c-50.112 0-90.882-40.77-90.882-90.882 0-12.427 10.074-22.5 22.5-22.5s22.5 10.073 22.5 22.5c0 25.3 20.583 45.882 45.882 45.882s45.881-20.582 45.881-45.882v-130.96c0-12.427 10.074-22.5 22.5-22.5 12.427 0 22.5 10.073 22.5 22.5v130.96c0 50.112-40.769 90.882-90.881 90.882z" p-id="20318" fill="#F85B6A"></path><path d="M660.231 652.175a22.505 22.505 0 0 1-17.09-7.864c-32.679-38.159-79.365-60.044-128.086-60.044-48.751 0-95.434 21.882-128.078 60.036a22.504 22.504 0 0 1-17.091 7.872h-0.005a22.496 22.496 0 0 1-17.089-7.864c-32.682-38.158-79.368-60.044-128.087-60.044-28.358 0-56.551 7.464-81.532 21.585a22.5 22.5 0 0 1-33.447-21.959c10.904-102.857 57.835-197.963 132.149-267.797 69.511-65.32 157.791-103.479 250.677-108.799l-0.016-70.997c-0.003-12.426 10.069-22.502 22.495-22.505 12.426-0.002 22.502 10.068 22.505 22.495l0.016 71.005c92.886 5.32 181.169 43.472 250.668 108.78 74.302 69.822 121.226 164.92 132.128 267.777a22.5 22.5 0 0 1-10.017 21.173 22.495 22.495 0 0 1-23.408 0.798c-25.014-14.103-53.2-21.557-81.515-21.557-48.786 0-95.467 21.879-128.074 60.027a22.502 22.502 0 0 1-17.093 7.881l-0.01 0.001zM224.705 539.267c53.775 0 105.48 20.854 145.17 57.921 39.665-37.065 91.375-57.921 145.181-57.921 53.772 0 105.477 20.854 145.163 57.915 39.641-37.061 91.354-57.915 145.19-57.915 21.707 0 43.337 3.432 64.045 10.071C833.598 377.101 687.4 251.652 515.058 251.652c-172.348 0-318.554 125.453-354.43 297.694 20.704-6.645 42.346-10.079 64.077-10.079z" p-id="20319" fill="#F85B6A"></path><path d="M659.706 507.37c-6.201 0-11.581-4.61-12.385-10.923-8.425-66.196-34.371-112.415-54.653-139.531-22.06-29.492-42.429-43.487-42.632-43.625-5.702-3.871-7.209-11.634-3.353-17.345 3.856-5.712 11.595-7.233 17.314-3.392 0.945 0.634 23.42 15.909 47.937 48.387 22.386 29.655 50.999 80.158 60.188 152.351 0.871 6.848-3.974 13.106-10.822 13.978-0.535 0.066-1.069 0.1-1.594 0.1z" p-id="20320" fill="#F85B6A"></path></svg>