<?xml version="1.0" standalone="no"?><!DOCTYPE svg PUBLIC "-//W3C//DTD SVG 1.1//EN" "http://www.w3.org/Graphics/SVG/1.1/DTD/svg11.dtd"><svg t="1514274474280" class="icon" style="" viewBox="0 0 1024 1024" version="1.1" xmlns="http://www.w3.org/2000/svg" p-id="25934" xmlns:xlink="http://www.w3.org/1999/xlink" width="200" height="200"><defs><style type="text/css"></style></defs><path d="M507.91424 64.64512c249.05728 0 450.96448 200.20736 450.96448 447.18592 0 246.97344-201.90208 447.18592-450.96448 447.18592-249.0624 0-450.96448-200.21248-450.96448-447.18592 0-246.97856 201.90208-447.18592 450.96448-447.18592z m0 857.10336c228.30592 0 413.38368-183.52128 413.38368-409.91744s-185.07776-409.91744-413.38368-409.91744S94.53056 285.44 94.53056 511.83104s185.07776 409.91744 413.38368 409.91744zM307.46112 492.06784L506.7776 294.4256a28.37504 28.37504 0 0 1 39.85408 0 27.8016 27.8016 0 0 1 0 39.54176L394.69568 484.62336h308.59776c15.55968 0 28.1856 12.5184 28.1856 27.95008 0 15.4368-12.62592 27.95008-28.1856 27.95008H396.20096l150.43072 149.1712a27.776 27.776 0 0 1 0 39.52128 28.34432 28.34432 0 0 1-39.85408 0l-197.15072-195.49696c-3.6864-3.05664-6.6048-6.82496-8.33024-11.35616-0.14336-0.37376-0.10752-0.78336-0.23552-1.16224-0.91648-2.75456-1.7408-5.56544-1.7408-8.6272 0-0.05632 0.01536-0.1024 0.01536-0.1536a27.56096 27.56096 0 0 1 8.12544-20.352z" fill="#dbdbdb" p-id="25935"></path></svg>