<?xml version="1.0" standalone="no"?><!DOCTYPE svg PUBLIC "-//W3C//DTD SVG 1.1//EN" "http://www.w3.org/Graphics/SVG/1.1/DTD/svg11.dtd"><svg t="1514275332672" class="icon" style="" viewBox="0 0 1024 1024" version="1.1" xmlns="http://www.w3.org/2000/svg" p-id="49367" xmlns:xlink="http://www.w3.org/1999/xlink" width="200" height="200"><defs><style type="text/css"></style></defs><path d="M512 992C247.04 992 32.32 777.088 32.32 512S247.04 32 512 32c264.896 0 479.68 214.912 479.68 480S776.896 992 512 992m0-896C282.368 96 96.256 282.24 96.256 512S282.368 928 512 928s415.68-186.24 415.68-416S741.632 96 512 96m0 704a64 64 0 1 1-0.128-127.872A64 64 0 0 1 512 800m0-192c-17.664 0-32-28.608-32-64L448 256a64 64 0 1 1 127.936 0l-32 288c0 35.392-14.336 64-31.936 64m0 0z" p-id="49368" fill="#5570EC"></path></svg>