<?xml version="1.0" standalone="no"?><!DOCTYPE svg PUBLIC "-//W3C//DTD SVG 1.1//EN" "http://www.w3.org/Graphics/SVG/1.1/DTD/svg11.dtd"><svg t="1514220220406" class="icon" style="" viewBox="0 0 1024 1024" version="1.1" xmlns="http://www.w3.org/2000/svg" p-id="30939" xmlns:xlink="http://www.w3.org/1999/xlink" width="200" height="200"><defs><style type="text/css"></style></defs><path d="M512.003414 1024C229.23437 1024 0 794.772458 0 512.003414S229.23437 0 512.003414 0s512.003414 229.23437 512.003414 512.003414c-0.006828 282.769044-229.23437 511.996586-512.003414 511.996586z m0-959.99872c-247.422914 0-448.002134 200.57922-448.002134 448.002134 0 247.422914 200.57922 448.002134 448.002134 448.002133 247.422914 0 448.002134-200.57922 448.002133-448.002133-0.006828-247.429741-200.57922-448.002134-448.002133-448.002134z m255.998293 575.997867H335.286416l104.638748 109.909601c12.234936 12.849414 10.330055 32.007468-4.246725 42.78814-14.57678 10.780672-36.31564 9.107927-48.550576-3.741487L241.803855 636.31228c-10.446123-5.264027-17.806202-15.812563-17.806202-28.313774 0-0.689581 0.348204-1.269921 0.395997-1.952674 0.047793-2.635427 0.730546-5.120649 1.54985-7.66049 0.416479-1.304059 0.675926-2.621772 1.256265-3.850728 0.798821-1.624952 1.932191-3.038252 3.058734-4.540308 1.706883-2.430601 3.557144-4.601756 5.858022-6.4725 0.088758-0.068275 0.116068-0.163861 0.204826-0.225308 0.136551-0.102413 0.314066-0.116068 0.450617-0.218481a31.099406 31.099406 0 0 1 11.490736-5.516646c0.08193-0.020483 0.170688-0.02731 0.252619-0.05462 2.464739-0.60765 4.827065-1.508884 7.482974-1.508885h512.003414a31.993813 31.993813 0 1 1 0 64.001281z m30.054793-214.384489c-0.416479 1.304059-0.675926 2.621772-1.256265 3.850728-0.798821 1.624952-1.932191 3.038252-3.058734 4.540308-1.706883 2.437429-3.557144 4.601756-5.858022 6.4725-0.088758 0.068275-0.116068 0.163861-0.204826 0.225308-0.136551 0.102413-0.314066 0.116068-0.450617 0.218481a31.099406 31.099406 0 0 1-11.490736 5.516646l-0.252619 0.047793c-2.464739 0.60765-4.827065 1.508884-7.482974 1.508884H255.998293a31.993813 31.993813 0 1 1 0-64.00128h432.715291L584.074836 274.091252c-12.234936-12.849414-10.330055-32.007468 4.246725-42.78814 14.57678-10.780672 36.31564-9.107927 48.550576 3.741487l145.324008 152.643121c10.446123 5.264027 17.806202 15.812563 17.806202 28.313774 0 0.689581-0.348204 1.269921-0.395997 1.952674-0.047793 2.635427-0.730546 5.113821-1.54985 7.66049z" p-id="30940" fill="#FF527B"></path></svg>