<?xml version="1.0" standalone="no"?><!DOCTYPE svg PUBLIC "-//W3C//DTD SVG 1.1//EN" "http://www.w3.org/Graphics/SVG/1.1/DTD/svg11.dtd"><svg t="1515152437811" class="icon" style="" viewBox="0 0 1024 1024" version="1.1" xmlns="http://www.w3.org/2000/svg" p-id="744" xmlns:xlink="http://www.w3.org/1999/xlink" width="200" height="200"><defs><style type="text/css"></style></defs><path d="M322.399781 447.410959l63.130829 37.878702-63.130829 37.879726 0 37.878702 101.009532-75.758428-101.009532-75.756381L322.399781 447.410959 322.399781 447.410959zM518.106068 662.057621c-17.436114 0-31.564903 8.470929-31.564903 18.940374 0 10.456143 14.129812 18.940374 31.564903 18.940374 17.436114 0 31.564903-8.484232 31.564903-18.940374C549.671994 670.52855 535.543206 662.057621 518.106068 662.057621L518.106068 662.057621zM511.745197 131.74351c-209.178113 0-378.750183 169.57821-378.750183 378.788046 0 209.206766 169.57207 378.798279 378.750183 378.798279 209.17709 0 378.748137-169.592536 378.748137-378.798279C890.493334 301.322743 720.921263 131.74351 511.745197 131.74351L511.745197 131.74351zM511.745197 851.438852c-188.259688 0-340.871481-152.635329-340.871481-340.907297s152.611793-340.89604 340.871481-340.89604c188.257641 0 340.875574 152.625096 340.875574 340.89604S700.002838 851.438852 511.745197 851.438852L511.745197 851.438852zM688.560228 561.048089l0-37.878702-63.130829-37.879726 63.130829-37.878702 0-37.877679-101.010555 75.756381L688.560228 561.048089 688.560228 561.048089z" p-id="745" fill="#cdcdcd"></path></svg>