<?xml version="1.0" standalone="no"?><!DOCTYPE svg PUBLIC "-//W3C//DTD SVG 1.1//EN" "http://www.w3.org/Graphics/SVG/1.1/DTD/svg11.dtd"><svg t="1515574698837" class="icon" style="" viewBox="0 0 1024 1024" version="1.1" xmlns="http://www.w3.org/2000/svg" p-id="8706" xmlns:xlink="http://www.w3.org/1999/xlink" width="48" height="48"><defs><style type="text/css"></style></defs><path d="M960 512L576 512 576 128c0-17.664-14.336-32-32-32S512 110.336 512 128l0 384L128 512C110.336 512 96 526.336 96 544S110.336 576 128 576l384 0 0 384c0 17.664 14.336 32 32 32S576 977.664 576 960L576 576l384 0c17.664 0 32-14.336 32-32S977.664 512 960 512z" fill="#272636" p-id="8707"></path></svg>