<?xml version="1.0" standalone="no"?><!DOCTYPE svg PUBLIC "-//W3C//DTD SVG 1.1//EN" "http://www.w3.org/Graphics/SVG/1.1/DTD/svg11.dtd"><svg t="1515478107952" class="icon" style="" viewBox="0 0 1024 1024" version="1.1" xmlns="http://www.w3.org/2000/svg" p-id="3219" xmlns:xlink="http://www.w3.org/1999/xlink" width="48" height="48"><defs><style type="text/css"></style></defs><path d="M577.241973 151.963012c-9.642952-13.088326-23.489977-20.862687-40.111732-22.491689l-5.295534-0.290783c-14.408114 0.069624-30.570144 6.083927-49.426017 18.377717-2.284288 1.579855-8.389716 5.933415-18.110483 13.006416-9.208825 6.782216-20.609788 15.196506-34.174221 25.313517-14.651799 10.975027-31.094373 23.05585-45.232182 33.414497-17.845297 13.042251-35.031213 25.773241-51.070376 37.831539-36.223015 26.557538-77.735422 57.457373-126.908538 94.455469l-2.356984 1.777465h-37.938023c-41.909674 0-73.510871 27.429888-73.510871 63.808533v188.250532c0 17.94359 7.632041 33.996064 22.058585 46.438319 13.514262 11.680484 30.713488 17.607756 51.13181 17.607756h13.747708c6.736142 0 12.228262-0.310237 13.970915-0.599997l0.639929-0.117746h1.08327c2.456301 0 4.976083-0.004096 7.418049-0.079863l3.037868-0.088055 2.456301 1.797943c27.76777 20.322076 55.579567 40.921625 82.655191 61.233462 27.64388 21.067464 56.492873 43.313421 85.743228 66.128657 33.166717 25.893036 61.618443 48.364247 86.98213 68.690419 19.605356 16.287968 37.439391 24.885533 54.515751 26.285184 2.629338 0.19761 4.786664 0.295903 6.761738 0.295903 15.05521 0 28.251044-4.269602 39.212761-12.69413 11.419393-8.719407 19.911498-20.549378 25.254131-35.174557 4.73035-12.861024 7.130337-25.414882 7.130337-37.323691V224.390612c0-10.580831-1.245045-22.28384-3.698273-34.78036C590.434735 175.206233 585.059337 162.538724 577.241973 151.963012z" fill="#89622E" p-id="3220"></path><path d="M918.994417 442.613339c-6.239557-22.187595-14.96306-43.255059-25.943207-62.605468-10.920761-19.39546-24.243557-37.670789-39.611051-54.307901-15.334731-16.596157-32.103924-31.386181-49.835571-43.924681l-0.305118-0.207849-0.333786-0.27952c-4.795879-4.083255-10.192778-6.07164-16.511175-6.07164-7.548083 0-13.879789 2.689747-19.342218 8.218727-5.525909 5.526933-8.213608 11.90881-8.213608 19.491705 0 9.565137 3.769946 16.73643 11.872975 22.571552 29.052746 20.505351 53.628042 47.004527 73.012238 78.747021 19.558257 32.162286 29.477659 68.108852 29.477659 106.846529 0 19.206041-2.619099 37.988193-7.780505 55.827347-5.083591 17.733694-12.366487 34.738381-21.625482 50.540004-9.210872 15.645992-20.083511 30.326459-32.310749 43.628777-12.089014 13.168189-25.328875 24.735022-39.485114 34.480362l-0.377813 0.375766c-0.699314 0.648119-1.588046 1.407842-3.116707 2.353913-6.507815 5.76345-9.665477 12.636793-9.665478 20.989649 0 7.563441 2.699986 13.938151 8.255588 19.491705 5.44707 5.503384 11.75318 8.184939 19.301262 8.184939 6.026589 0 11.085606-1.605452 15.455549-4.889052l0.312285-0.228327c18.25178-12.578431 35.231894-27.336714 50.468331-43.863247 15.301966-16.57568 28.774249-34.998448 40.035964-54.759435 11.214616-19.598189 20.039484-40.745517 26.230919-62.862464 6.217032-22.087254 9.370598-45.39498 9.370598-69.269937C928.320988 487.786136 925.181756 464.748716 918.994417 442.613339z" fill="#89622E" p-id="3221"></path><path d="M755.432832 461.174332c-5.827955-13.867503-13.844977-27.96026-23.829908-41.886124-3.732062-5.112259-7.626922-9.600973-11.575023-13.339178-2.805446-2.661078-6.30099-3.896908-11.006767-3.896908-6.538532 0-11.694818 2.203401-16.237798 6.940919-4.59315 4.829667-6.818052 10.404723-6.818052 17.035404 0 3.245716 0.510919 6.116691 1.52047 8.506439l0.158702 0.417745c1.696578 4.621818 4.064825 9.186299 7.05457 13.583887 3.562097 5.004751 7.066857 10.476395 10.417009 16.259299 3.604076 6.075736 6.541603 12.616315 8.971283 19.999552 2.511591 7.552178 3.785304 16.401619 3.785304 26.297471 0 10.350457-1.273713 19.441535-3.777113 27.028524-2.489065 7.503032-5.440927 13.960676-9.034764 19.75382-3.43104 5.625226-6.877438 10.882877-10.260355 15.643944-1.97917 2.8935-3.673701 5.645704-5.251507 8.541251l-1.902379 5.179836c-1.135489 3.090086-1.680196 6.019422-1.680196 8.952853 0 6.60918 2.221831 12.15659 6.802694 16.967828 4.575744 4.783592 9.738173 7.015662 16.254179 7.015662 4.607484 0 8.209513-1.294191 11.006768-3.939911 4.03206-3.823188 7.970947-8.367191 11.677412-13.482521 9.436127-12.400275 17.281137-26.291327 23.320012-41.285105 5.960036-14.697874 8.982546-31.6442 8.982546-50.376181C764.008895 491.524341 761.121538 474.732622 755.432832 461.174332z" fill="#89622E" p-id="3222"></path></svg>