<?xml version="1.0" standalone="no"?><!DOCTYPE svg PUBLIC "-//W3C//DTD SVG 1.1//EN" "http://www.w3.org/Graphics/SVG/1.1/DTD/svg11.dtd"><svg t="1515575873835" class="icon" style="" viewBox="0 0 1024 1024" version="1.1" xmlns="http://www.w3.org/2000/svg" p-id="9646" xmlns:xlink="http://www.w3.org/1999/xlink" width="48" height="48"><defs><style type="text/css"></style></defs><path d="M922.203647 201.431265c-8.097596-11.490603-19.011063-21.062991-32.726833-28.728965-13.727372-7.653782-31.15549-11.489619-52.274524-11.489619l-48.564142 0c-16.895227 0-32.738631-0.38148-47.519988-1.149355L741.11816 88.829455c0-19.918552-4.742934-36.960275-14.242566-51.130675-9.511431-14.164894-26.581863-21.252945-51.220735-21.252945L345.180526 16.445836c-18.314567 0-33.792027 7.087854-46.465413 21.252945-12.672403 14.170203-19.003787 31.212122-19.003787 51.130675l0 70.095724L185.743819 158.925179c-18.308078 0-34.139095 3.442756-47.519005 10.333972-13.368506 6.892199-24.280989 15.505579-32.732142 25.851152-8.450563 10.335348-14.781357 21.640127-19.003787 33.892706-4.227739 12.252579-6.336693 23.367208-6.336693 33.320486 0 19.913243 0.352967 31.789848 1.054379 35.614281 0 3.06167 0.358866 4.979491 1.054575 5.753658l65.462711 0 0 591.706748c0 19.917569 3.34778 37.727167 10.032131 53.438627 6.68966 15.703594 15.842225 29.104742 27.460249 40.208949 11.608586 11.102241 25.515489 19.728795 41.698883 25.850169 16.195192 6.12334 33.432767 9.18501 51.736323 9.18501l470.912366 0c19.711098 0 37.133317-3.250443 52.266658-9.755263 15.13924-6.516618 27.981736-15.131375 38.545382-25.852135 10.553618-10.720761 18.65141-23.170175 24.280989-37.347851 5.629776-14.16391 8.445647-28.911839 8.445647-44.231987L873.102484 303.691631l69.691041 0 0-6.897115c0-2.2993 0.16911-4.979884 0.528959-8.041554 0.348051-3.068159 0.526993-7.278594 0.526993-12.640351 0-11.489619-1.582944-23.932938-4.756699-37.340378C935.931019 225.36381 930.301243 212.914985 922.203647 201.431265zM345.180526 88.834961l330.474333 0 0 72.383029L345.180526 161.21799 345.180526 88.834961zM346.228613 841.407c0 31.403256-11.265451 47.104883-33.785538 47.104883-11.966469 0-20.238091-3.824629-24.807982-11.48372-4.582083-7.661057-6.863686-19.538056-6.863686-35.621163L280.771407 308.290035l65.457402 0L346.228809 841.407zM542.620483 841.407c0 16.083108-2.109937 27.771332-6.337676 35.037145-4.22184 7.277611-12.319436 10.923299-24.280989 10.923299-23.23251 0-34.845619-15.320148-34.845619-45.960444L477.156198 308.290035l65.464284 0L542.620483 841.407 542.620483 841.407zM742.172146 839.108289c0 16.083108-2.107971 27.769366-6.33571 35.037145-4.217908 7.289409-12.661588 10.923299-25.334975 10.923299-23.227004 0-34.846405-15.320148-34.846405-45.960444L675.655056 308.290035l66.517287 0L742.172342 839.108289z" p-id="9647"></path></svg>