<?xml version="1.0" standalone="no"?><!DOCTYPE svg PUBLIC "-//W3C//DTD SVG 1.1//EN" "http://www.w3.org/Graphics/SVG/1.1/DTD/svg11.dtd"><svg t="1517382297876" class="icon" style="" viewBox="0 0 1024 1024" version="1.1" xmlns="http://www.w3.org/2000/svg" p-id="2824" xmlns:xlink="http://www.w3.org/1999/xlink" width="200" height="200"><defs><style type="text/css"></style></defs><path d="M512 988.094c0 0 0 0 0 0-8.116 0-15.556-4.494-19.331-11.673l-242.4-462.044c-0.044-0.066-0.087-0.153-0.131-0.24-32.094-50.116-49.069-107.934-49.069-167.324 0-171.426 139.484-310.909 310.909-310.909s310.909 139.484 310.909 310.909c0 54.393-14.509 108.066-41.978 155.454-0.306 0.786-0.654 1.527-1.047 2.291l-248.553 471.884c-3.774 7.178-11.214 11.651-19.309 11.651zM290.022 496.226l222.022 423.164 227.542-431.934c0.48-1.462 1.134-2.88 1.92-4.233 24.72-41.454 37.767-88.626 37.767-136.407 0-147.382-119.891-267.273-267.273-267.273s-267.273 119.891-267.273 267.273c0 51.731 14.967 102.066 43.287 145.527 0.807 1.244 1.484 2.531 2.007 3.884zM512 457.454c-55.636 0-100.909-45.273-100.909-100.909s45.273-100.909 100.909-100.909c55.636 0 100.909 45.273 100.909 100.909s-45.273 100.909-100.909 100.909zM512 299.273c-31.571 0-57.273 25.702-57.273 57.273s25.702 57.273 57.273 57.273 57.273-25.702 57.273-57.273-25.702-57.273-57.273-57.273z" p-id="2825" fill="#8a8a8a"></path></svg>