<?xml version="1.0" standalone="no"?><!DOCTYPE svg PUBLIC "-//W3C//DTD SVG 1.1//EN" "http://www.w3.org/Graphics/SVG/1.1/DTD/svg11.dtd"><svg t="1515482981278" class="icon" style="" viewBox="0 0 1024 1024" version="1.1" xmlns="http://www.w3.org/2000/svg" p-id="5311" xmlns:xlink="http://www.w3.org/1999/xlink" width="48" height="48"><defs><style type="text/css"></style></defs><path d="M702.656 538.432H321.472a26.432 26.432 0 0 1 0-52.8h381.184a26.368 26.368 0 0 1 0 52.8z" p-id="5312" fill="#C9C9C9"></path><path d="M512 1024c-282.368 0-512-229.696-512-512s229.696-512 512-512 512 229.696 512 512-229.696 512-512 512zM512 52.736C258.752 52.736 52.8 258.752 52.8 512c0 253.184 205.952 459.2 459.264 459.2 253.248 0 459.136-206.016 459.136-459.2C971.2 258.752 765.248 52.736 512 52.736z" p-id="5313" fill="#C9C9C9"></path></svg>