<?xml version="1.0" standalone="no"?><!DOCTYPE svg PUBLIC "-//W3C//DTD SVG 1.1//EN" "http://www.w3.org/Graphics/SVG/1.1/DTD/svg11.dtd"><svg t="1517407672041" class="icon" style="" viewBox="0 0 1396 1024" version="1.1" xmlns="http://www.w3.org/2000/svg" p-id="8373" xmlns:xlink="http://www.w3.org/1999/xlink" width="272.65625" height="200"><defs><style type="text/css"></style></defs><path d="M580.322426 253.777929m-36.926317 0a36.926318 36.926318 0 1 0 73.852635 0 36.926318 36.926318 0 1 0-73.852635 0Z" fill="#FF6EE5" p-id="8374"></path><path d="M580.322426 296.259424a42.444043 42.444043 0 1 1 42.444044-42.444044 42.531428 42.531428 0 0 1-42.444044 42.444044z m0-73.852636a31.371142 31.371142 0 1 0 31.358659 31.371141 31.408592 31.408592 0 0 0-31.358659-31.371141z" fill="#FF6EE5" p-id="8375"></path><path d="M1086.779734 808.45916c-0.9862-291.815283-237.811479-528.053835-529.838982-528.053835s-528.840298 236.238553-529.826498 528.053835z" fill="#FF6EE5" p-id="8376"></path><path d="M0 846.047106h1110.123958v42.144438H0z" fill="#FF6EE5" p-id="8377"></path><path d="M1086.779734 808.45916c-0.9862-291.815283-237.811479-528.053835-529.838982-528.053835s-528.840298 236.238553-529.826498 528.053835z" fill="#FF6EE5" p-id="8378"></path><path d="M1092.397328 813.976886H21.53411v-5.517726a535.543961 535.543961 0 0 1 1028.219438-207.813527 531.798898 531.798898 0 0 1 42.64378 207.813527z m-1059.640513-11.110353h1048.405325c-3.969766-285.536061-237.986249-516.893549-524.233872-516.893548S36.689131 517.330473 32.719364 802.866533z" fill="#FF6EE5" p-id="8379"></path><path d="M7.565027 797.873116h1095.780367v22.582728H7.565027z" fill="#FF6EE5" p-id="8380"></path><path d="M1108.913054 826.023504H2.00985v-33.705564H1108.913054z m-1095.792851-11.122836h1084.670015v-11.434925H13.120203z" fill="#FF6EE5" p-id="8381"></path><path d="M677.369484 329.752767s278.470376 93.988589 362.759253 426.275516h-36.127372s-60.15819-292.314624-326.631881-426.275516z" fill="#FF6EE5" p-id="8382"></path><path d="M375.467499 131.039743h11.809431v113.937289h-11.809431zM760.297654 131.039743h11.809431v113.937289h-11.809431zM488.006632 66.437412h19.449359v165.332033h-19.449359zM640.817672 0h15.978934v206.465305h-15.978934z" fill="#FF6EE5" p-id="8383"></path></svg>