<?xml version="1.0" standalone="no"?><!DOCTYPE svg PUBLIC "-//W3C//DTD SVG 1.1//EN" "http://www.w3.org/Graphics/SVG/1.1/DTD/svg11.dtd"><svg t="1517386641137" class="icon" style="" viewBox="0 0 1024 1024" version="1.1" xmlns="http://www.w3.org/2000/svg" p-id="4785" xmlns:xlink="http://www.w3.org/1999/xlink" width="200" height="200"><defs><style type="text/css"></style></defs><path d="M746.384 286.736 918.96 459.312C930.992 471.344 930.992 490.864 918.96 502.896 912.704 509.152 904.432 512 896.24 511.744 896.144 511.84 896.08 511.904 896 512L160 512 160 928C160 945.68 145.68 960 128 960 110.32 960 96 945.68 96 928L96 96C96 78.32 110.32 64 128 64L896 64C896.096 64.096 896.16 64.16 896.256 64.24 903.808 64.416 911.312 67.264 917.072 73.024 928.96 84.896 928.96 104.16 917.072 116.032L746.384 286.736ZM160 128 160 448 820.464 448 682.576 310.112C682.096 309.696 681.488 309.536 681.024 309.072 675.024 303.072 672.096 295.184 672.16 287.312 672.032 279.264 674.96 271.184 681.104 265.04 681.936 264.208 683.008 263.888 683.904 263.184L819.088 128 160 128Z" p-id="4786" fill="#8a8a8a"></path></svg>