<?xml version="1.0" standalone="no"?><!DOCTYPE svg PUBLIC "-//W3C//DTD SVG 1.1//EN" "http://www.w3.org/Graphics/SVG/1.1/DTD/svg11.dtd"><svg t="1515575056291" class="icon" style="" viewBox="0 0 1024 1024" version="1.1" xmlns="http://www.w3.org/2000/svg" p-id="9383" xmlns:xlink="http://www.w3.org/1999/xlink" width="48" height="48"><defs><style type="text/css"></style></defs><path d="M383.754 646.246l181.095-51.415L435.497 466.271 383.754 646.246zM867.434 294.092 738.081 165.529 453.5 448.359l129.352 128.55L867.434 294.092zM829.739 770.172c0 44.671-36.226 80.913-80.911 80.913L263.344 851.085c-44.697 0-80.914-36.242-80.914-80.913L182.43 284.687c0-44.697 36.217-80.913 80.914-80.913l323.655 0 80.915-80.915L236.373 122.859c-74.487 0-134.856 60.369-134.856 134.857l0 539.426c0 74.489 60.37 134.856 134.856 134.856l539.426 0c74.474 0 134.856-60.369 134.856-134.856L910.655 365.6l-80.916 80.915L829.739 770.172zM927.554 186.099l-80.85-80.347c-13.395-13.315-35.835-12.59-50.124 1.606l-38.812 38.561 129.354 128.562 38.81-38.573C940.221 221.711 940.946 199.415 927.554 186.099z" p-id="9384" fill="#FF8149"></path></svg>