<?xml version="1.0" standalone="no"?><!DOCTYPE svg PUBLIC "-//W3C//DTD SVG 1.1//EN" "http://www.w3.org/Graphics/SVG/1.1/DTD/svg11.dtd"><svg t="1515637726621" class="icon" style="" viewBox="0 0 1057 1024" version="1.1" xmlns="http://www.w3.org/2000/svg" p-id="2442" xmlns:xlink="http://www.w3.org/1999/xlink" width="49.546875" height="48"><defs><style type="text/css"></style></defs><path d="M318.319192 212.816162c0 22.109091-17.842424 39.951515-39.951515 39.951515-21.979798 0-39.951515-17.842424-39.951515-39.951515 0-21.979798 17.842424-39.951515 39.951515-39.951515C300.476768 172.993939 318.319192 190.836364 318.319192 212.816162L318.319192 212.816162z" p-id="2443" fill="#575757"></path><path d="M318.319192 359.305051c0 22.109091-17.842424 39.951515-39.951515 39.951515-21.979798 0-39.951515-17.842424-39.951515-39.951515 0-21.979798 17.842424-39.951515 39.951515-39.951515C300.476768 319.353535 318.319192 337.325253 318.319192 359.305051L318.319192 359.305051z" p-id="2444" fill="#575757"></path><path d="M278.367677 505.793939 278.367677 505.793939zM238.545455 505.793939 238.545455 505.793939z" p-id="2445" fill="#575757"></path><path d="M679.434343 248.888889 411.539394 248.888889c-19.911111 0-36.072727-16.161616-36.072727-36.072727 0-19.911111 16.161616-36.072727 36.072727-36.072727l267.894949 0c19.911111 0 36.072727 16.161616 36.072727 36.072727C715.507071 232.856566 699.345455 248.888889 679.434343 248.888889L679.434343 248.888889z" p-id="2446" fill="#575757"></path><path d="M679.434343 395.377778 411.539394 395.377778c-19.911111 0-36.072727-16.161616-36.072727-36.072727 0-19.911111 16.161616-36.072727 36.072727-36.072727l267.894949 0c19.911111 0 36.072727 16.161616 36.072727 36.072727C715.507071 379.216162 699.345455 395.377778 679.434343 395.377778L679.434343 395.377778z" p-id="2447" fill="#575757"></path><path d="M679.434343 541.866667 411.539394 541.866667c-19.911111 0-36.072727-16.161616-36.072727-36.072727 0-19.911111 16.161616-36.072727 36.072727-36.072727l267.894949 0c19.911111 0 36.072727 16.161616 36.072727 36.072727C715.507071 525.705051 699.345455 541.866667 679.434343 541.866667L679.434343 541.866667z" p-id="2448" fill="#575757"></path><path d="M278.367677 643.10303 278.367677 643.10303zM238.545455 643.10303 238.545455 643.10303z" p-id="2449" fill="#575757"></path><path d="M679.434343 679.175758 411.539394 679.175758c-19.911111 0-36.072727-16.161616-36.072727-36.072727 0-19.911111 16.161616-36.072727 36.072727-36.072727l267.894949 0c19.911111 0 36.072727 16.161616 36.072727 36.072727C715.507071 663.014141 699.345455 679.175758 679.434343 679.175758L679.434343 679.175758z" p-id="2450" fill="#575757"></path><path d="M1056.969697 193.939394c0-130.327273-48.09697-178.424242-107.442424-178.424242L218.505051 15.515152c-61.026263 0-110.80404 49.648485-110.80404 110.80404l0 696.371717-0.258586 0L0 822.690909c0 162.650505 59.991919 187.216162 134.076768 187.216162L218.505051 1009.907071l471.272727 0 85.721212 0c61.155556 0 110.80404-49.648485 110.80404-110.80404L886.30303 193.939394 1056.969697 193.939394 1056.969697 193.939394zM841.826263 899.10303c0 36.589899-29.866667 66.456566-66.456566 66.456566-59.345455 0-89.729293-12.670707-89.729293-142.868687L530.876768 822.690909l-378.828283 0L152.048485 126.319192c0-36.589899 29.737374-66.456566 66.456566-66.456566l652.670707 0c-17.583838 27.79798-28.573737 69.947475-28.961616 130.19798-0.129293 1.292929-0.258586 2.715152-0.258586 3.878788L841.826263 899.10303 841.826263 899.10303 841.826263 899.10303z" p-id="2451" fill="#575757"></path></svg>