<?xml version="1.0" standalone="no"?><!DOCTYPE svg PUBLIC "-//W3C//DTD SVG 1.1//EN" "http://www.w3.org/Graphics/SVG/1.1/DTD/svg11.dtd"><svg t="1515470396610" class="icon" style="" viewBox="0 0 1024 1024" version="1.1" xmlns="http://www.w3.org/2000/svg" p-id="2454" xmlns:xlink="http://www.w3.org/1999/xlink" width="48" height="48"><defs><style type="text/css"></style></defs><path d="M583.888915 941.334962c28.62524-4.933781 50.035988-17.175144 69.654751-38.539348 34.629558-37.724808 64.651151-106.006478 99.094529-196.885796C827.063819 509.396383 902.443617 279.277382 932.395392 186.280261L423.727208 85.114474 244.598369 576.002429a39.65643 39.65643 0 0 1-74.495441-27.135796L360.868043 26.072008A39.65643 39.65643 0 0 1 405.853887 0.774743l585.537427 116.479127a39.65643 39.65643 0 0 1 30.09141 50.734165c-0.977447 3.09525-98.512716 312.084932-194.674903 565.988482-38.772073 102.259597-71.493282 175.149232-114.826775 222.345969-40.773512 44.404031-89.645873 65.512236-156.158829 66.745681a67.304222 67.304222 0 0 1-2.397073 0.465451c-48.337092 4.328695-105.098848-22.900192-105.098848-22.900192L118.0655 850.851277s-156.158829-48.849088-109.264635-251.809021l451.115162 182.084453s-17.384597 179.896833 123.856526 160.09189l0.116362 0.116363z m178.709933-558.727446c-3.490883 0-6.981766-0.465451-10.495921-1.396353l-173.147793-47.336373a39.609885 39.609885 0 1 1 20.945298-76.427063l173.147792 47.336373a39.609885 39.609885 0 0 1-10.472649 77.823416z m-70.213292 171.891074c-4.119242 0-8.261756-0.628359-12.380998-1.978167l-172.519433-56.552303a39.609885 39.609885 0 1 1 24.715451-75.263435l172.542706 56.552303a39.609885 39.609885 0 0 1-12.357726 77.264875z m-64.837332 159.882438c-4.119242 0-8.261756-0.628359-12.380998-1.978167l-172.496161-56.552304a39.609885 39.609885 0 1 1 24.715451-75.286708l172.519434 56.552304a39.609885 39.609885 0 0 1-12.357726 77.264875zM472.902111 299.384867a39.796065 39.796065 0 0 1-8.238483-0.861084l-1.978167-0.418906-4.235605-0.90763a39.609885 39.609885 0 1 1 16.732966-77.427783l3.816698 0.81454 2.071257 0.418906a39.609885 39.609885 0 0 1-8.168666 78.381957z m-61.90499 164.071497c-2.722889 0-5.492322-0.279271-8.261756-0.861084l-1.908349-0.418906-4.305423-0.90763a39.609885 39.609885 0 1 1 16.756238-77.427783l3.863244 0.81454 2.00144 0.418905a39.609885 39.609885 0 0 1-8.145394 78.381958z m-63.068618 152.086132c-2.699616 0-5.46905-0.279271-8.238483-0.861084l-2.09453-0.442179-4.119242-0.861084a39.609885 39.609885 0 1 1 16.756238-77.427783l3.653791 0.767994 2.234165 0.465451a39.609885 39.609885 0 0 1-8.168666 78.358685z" p-id="2455" fill="#ffffff"></path></svg>