<?xml version="1.0" standalone="no"?><!DOCTYPE svg PUBLIC "-//W3C//DTD SVG 1.1//EN" "http://www.w3.org/Graphics/SVG/1.1/DTD/svg11.dtd"><svg t="1515572723748" class="icon" style="" viewBox="0 0 1024 1024" version="1.1" xmlns="http://www.w3.org/2000/svg" p-id="2016" xmlns:xlink="http://www.w3.org/1999/xlink" width="48" height="48"><defs><style type="text/css"></style></defs><path d="M859.9062 234.57862c-18.679431-44.159756-45.414329-83.814917-79.46382-117.863385-34.048467-34.047444-73.703629-60.781318-117.864408-79.458703C616.847441 17.916045 568.283376 8.108678 518.23347 8.108678c-50.055023 0-98.621135 9.806343-144.351666 29.147854-44.160779 18.677385-83.815941 45.411259-117.863385 79.458703s-60.781318 73.702606-79.458703 117.863385c-19.340487 45.730531-29.147854 94.297666-29.147854 144.351666 0 61.188594 19.078521 132.104737 56.704466 210.777541 29.567409 61.823044 70.686922 128.797411 122.214483 199.062731 87.361697 119.130238 173.304068 205.438952 176.920432 209.054293 3.978614 3.978614 9.369392 6.205329 14.982226 6.205329 0.153496 0 0.308015-0.001023 0.461511-0.005117 5.777587-0.124843 11.254322-2.605338 15.159258-6.866385 0.88209-0.962931 89.310072-97.750301 176.476317-220.575698 51.411927-72.443939 92.440365-139.77544 121.942283-200.12083 37.679158-77.070306 56.783261-143.529951 56.783261-197.532889C889.0561 328.877309 879.248733 280.310174 859.9062 234.57862zM514.260995 547.126009c-81.788771 0-148.329257-66.539462-148.329257-148.329257 0-81.788771 66.540486-148.328233 148.329257-148.328233 81.788771 0 148.328233 66.539462 148.328233 148.328233C662.590252 480.586546 596.049766 547.126009 514.260995 547.126009z" p-id="2017" fill="#FF495E"></path></svg>