<?xml version="1.0" standalone="no"?><!DOCTYPE svg PUBLIC "-//W3C//DTD SVG 1.1//EN" "http://www.w3.org/Graphics/SVG/1.1/DTD/svg11.dtd"><svg t="1515641662450" class="icon" style="" viewBox="0 0 1024 1024" version="1.1" xmlns="http://www.w3.org/2000/svg" p-id="4674" xmlns:xlink="http://www.w3.org/1999/xlink" width="48" height="48"><defs><style type="text/css"></style></defs><path d="M898.034589 359.690082c-22.019503-50.997488-52.060703-95.362928-89.958848-133.26312-37.900192-37.899168-82.266655-67.858504-133.017526-89.878007-50.751894-22.101367-105.104803-33.070186-163.058726-33.070186s-112.305809 11.050684-163.057703 33.070186-95.117334 51.978838-133.017526 89.878007c-37.899168 37.900192-67.941392 82.347496-89.959871 133.26312C103.944885 410.686547 92.894202 465.120296 92.894202 522.993378c0 57.872059 11.050684 112.143103 33.070186 162.894997 22.019503 50.751894 52.060703 95.03547 89.959871 132.935662 37.982056 37.898145 82.265632 67.858504 133.017526 89.876983s105.10378 33.069163 163.057703 33.069163 112.306832-11.050684 163.058726-33.069163 95.117334-51.978838 133.017526-89.876983c37.898145-37.900192 67.940368-82.184791 89.958848-132.935662 22.019503-50.67003 33.069163-105.022938 33.069163-162.894997C931.103752 465.120296 920.054091 410.686547 898.034589 359.690082L898.034589 359.690082 898.034589 359.690082zM511.999488 793.283338c-26.193569 0-47.476291-21.201881-47.476291-47.393403 0-26.194592 21.282722-47.39545 47.476291-47.39545 26.195615 0 47.477314 21.201881 47.477314 47.39545C559.475779 772.081457 538.19408 793.283338 511.999488 793.283338L511.999488 793.283338 511.999488 793.283338zM559.475779 596.254939c0 26.194592-21.201881 47.393403-47.477314 47.393403s-47.476291-21.199835-47.476291-47.393403L464.522174 299.279201c0-26.193569 21.282722-47.394427 47.476291-47.394427 26.195615 0 47.477314 21.200858 47.477314 47.394427L559.475779 596.254939 559.475779 596.254939 559.475779 596.254939z" p-id="4675" fill="#A38052"></path></svg>