<?xml version="1.0" standalone="no"?><!DOCTYPE svg PUBLIC "-//W3C//DTD SVG 1.1//EN" "http://www.w3.org/Graphics/SVG/1.1/DTD/svg11.dtd"><svg t="1515638720524" class="icon" style="" viewBox="0 0 1024 1024" version="1.1" xmlns="http://www.w3.org/2000/svg" p-id="3899" xmlns:xlink="http://www.w3.org/1999/xlink" width="48" height="48"><defs><style type="text/css"></style></defs><path d="M512 128a384 384 0 1 1-384 384 384.4 384.4 0 0 1 384-384m0-64a448 448 0 1 0 448 448A448 448 0 0 0 512 64z" fill="#FF8149" p-id="3900"></path><path d="M705.6 747.52c-35.12 35.04-165.92 1.76-295.12-127.44S248 360 283.12 325.04c30.4-30.4 67.36-83.52 123.12-14.4s28.32 88.48-3.12 120c-21.92 22 24 77.36 72 125.28s103.28 93.68 125.28 72c31.44-31.28 50.72-58.72 120-3.12S736 717.12 705.6 747.52z" fill="#FF8149" p-id="3901"></path></svg>