<?xml version="1.0" standalone="no"?><!DOCTYPE svg PUBLIC "-//W3C//DTD SVG 1.1//EN" "http://www.w3.org/Graphics/SVG/1.1/DTD/svg11.dtd"><svg t="1515572872064" class="icon" style="" viewBox="0 0 1024 1024" version="1.1" xmlns="http://www.w3.org/2000/svg" p-id="5474" xmlns:xlink="http://www.w3.org/1999/xlink" width="48" height="48"><defs><style type="text/css"></style></defs><path d="M892.4 744.6c0 151.3-65 151-379.1 151-314 0-379.1 0.3-379.1-151 0-165.2 169.7-494.7 379.1-494.7 209.3 0.1 379.1 329.6 379.1 494.7zM509.9 383.8c-87.7 0-158.7 71.7-158.7 160.2 0 88.5 71.1 160.2 158.7 160.2S668.6 632.5 668.6 544c0-88.5-71.1-160.2-158.7-160.2z" p-id="5475" fill="#575757"></path><path d="M176.8 448c66-113.4 180.2-234.4 335.7-234.4s277 130.9 332.1 233.4c28.5 50.8 83.1 45.5 107 0 15.3-34 63.2-319-439.1-319C4.6 128.7 57 422.4 74.9 447c31.6 51.5 91.1 25.2 101.9 1z" p-id="5476" fill="#575757"></path></svg>