<?xml version="1.0" standalone="no"?><!DOCTYPE svg PUBLIC "-//W3C//DTD SVG 1.1//EN" "http://www.w3.org/Graphics/SVG/1.1/DTD/svg11.dtd"><svg t="1514276985245" class="icon" style="" viewBox="0 0 1024 1024" version="1.1" xmlns="http://www.w3.org/2000/svg" p-id="21173" xmlns:xlink="http://www.w3.org/1999/xlink" width="200" height="200"><defs><style type="text/css"></style></defs><path d="M915.049651 403.456C915.049651 180.809143 734.565587 0.325079 511.91873 0.325079S108.78781 180.809143 108.78781 403.456c0 64.235683 15.408762 124.732952 42.130285 178.631111h-1.560381s24.023365 43.918222 60.789842 104.122921l0.292571 0.682666c11.735365 19.244698 25.096127 40.374857 39.07454 62.025143l1.007746 1.592889a2203.843048 2203.843048 0 0 0 60.984889 89.526857l2.925714 4.063492a1281.787937 1281.787937 0 0 0 62.805333 80.359619c2.438095 2.82819 4.843683 5.656381 7.281778 8.419556a714.199365 714.199365 0 0 0 19.862349 22.007873h0.032508c20.089905 21.227683 39.919746 39.822222 58.741841 53.150476a83.837968 83.837968 0 0 0 97.556318 0c18.822095-13.328254 38.651937-31.922794 58.709333-53.150476h0.065016l0.455111-0.520127a723.366603 723.366603 0 0 0 26.526476-29.744762 1295.246222 1295.246222 0 0 0 63.130413-80.782222l2.535619-3.510857a2195.488508 2195.488508 0 0 0 61.179937-89.819429l1.040254-1.592889a2853.871746 2853.871746 0 0 0 39.042031-61.992635c0.16254-0.260063 0.195048-0.487619 0.32508-0.715174a2768.473397 2768.473397 0 0 0 60.757333-104.122921h-1.560381a400.822857 400.822857 0 0 0 42.130286-178.631111zM511.91873 233.146921a170.309079 170.309079 0 1 1 0 340.618158 170.309079 170.309079 0 0 1 0-340.618158z" p-id="21174" fill="#FF7F2A"></path></svg>