<?xml version="1.0" standalone="no"?><!DOCTYPE svg PUBLIC "-//W3C//DTD SVG 1.1//EN" "http://www.w3.org/Graphics/SVG/1.1/DTD/svg11.dtd"><svg t="1514276444174" class="icon" style="" viewBox="0 0 1024 1024" version="1.1" xmlns="http://www.w3.org/2000/svg" p-id="8502" xmlns:xlink="http://www.w3.org/1999/xlink" width="200" height="200"><defs><style type="text/css"></style></defs><path d="M882.90304 0l-136.14592 0-152.95488 285.9008c-40.82176 77.49632-65.7408 129.05472-74.87488 154.48064l-2.68288 0C489.34912 378.34752 413.45024 231.59296 288.35328 0L144.48128 0 412.1088 466.19136 192.65024 466.19136l0 103.05024 257.20832 0 0 141.96224L192.65024 711.20384l0 104.26368 257.20832 0 0 206.7456 127.7184 0 0-206.7456 248.07936 0 0-104.26368-248.07936 0 0-141.96224 248.07936 0L825.65632 466.19136l-212.9408 0L882.90304 0 882.90304 0 882.90304 0zM882.90304 0" p-id="8503" fill="#2c2c2c"></path></svg>